<svg xmlns="http://www.w3.org/2000/svg" version="1.1" xmlns:xlink="http://www.w3.org/1999/xlink" xmlns:svgjs="http://svgjs.dev/svgjs" width="1000" height="156" viewBox="0 0 1000 156"><g transform="matrix(1,0,0,1,-0.6060606060606233,-0.5417583007888567)"><svg viewBox="0 0 396 62" data-background-color="#ffffff" preserveAspectRatio="xMidYMid meet" height="156" width="1000" xmlns="http://www.w3.org/2000/svg" xmlns:xlink="http://www.w3.org/1999/xlink"><g id="tight-bounds" transform="matrix(1,0,0,1,0.2400000000000091,0.21531420017495861)"><svg viewBox="0 0 395.52 61.569366937584846" height="61.569366937584846" width="395.52"><g><svg viewBox="0 0 499.5620213072972 77.76526445679248" height="61.569366937584846" width="395.52"><g transform="matrix(1,0,0,1,104.04202130729723,10.747587200613143)"><svg viewBox="0 0 395.52 56.27009005556619" height="56.27009005556619" width="395.52"><g id="textblocktransform"><svg viewBox="0 0 395.52 56.27009005556619" height="56.27009005556619" width="395.52" id="textblock"><g><svg viewBox="0 0 395.52 56.27009005556619" height="56.27009005556619" width="395.52"><g transform="matrix(1,0,0,1,0,0)"><svg width="395.52" viewBox="1.2000000476837158 -35.5 254.8100128173828 36.2599983215332" height="56.27009005556619" data-palette-color="#387ce5"><g class="wordmark-text-0" data-fill-palette-color="primary" id="text-0"><path d="M1.2-24.51L1.2-24.51Q1.2-26.68 2.03-28.59 2.86-30.49 4.28-31.92 5.71-33.35 7.62-34.18 9.52-35.01 11.69-35.01L11.69-35.01 27.76-35.01 27.76-28 11.69-28Q10.96-28 10.33-27.73 9.69-27.47 9.22-26.99 8.74-26.51 8.47-25.88 8.2-25.24 8.2-24.51L8.2-24.51Q8.2-23.78 8.47-23.13 8.74-22.49 9.22-22.01 9.69-21.53 10.33-21.26 10.96-21 11.69-21L11.69-21 18.7-21Q20.87-21 22.79-20.18 24.71-19.36 26.14-17.93 27.56-16.5 28.38-14.59 29.2-12.67 29.2-10.5L29.2-10.5Q29.2-8.33 28.38-6.42 27.56-4.52 26.14-3.09 24.71-1.66 22.79-0.83 20.87 0 18.7 0L18.7 0 3.15 0 3.15-7.01 18.7-7.01Q19.43-7.01 20.07-7.28 20.7-7.54 21.18-8.02 21.66-8.5 21.92-9.13 22.19-9.77 22.19-10.5L22.19-10.5Q22.19-11.23 21.92-11.87 21.66-12.5 21.18-12.98 20.7-13.45 20.07-13.72 19.43-13.99 18.7-13.99L18.7-13.99 11.69-13.99Q9.52-13.99 7.62-14.82 5.71-15.65 4.28-17.08 2.86-18.51 2.03-20.42 1.2-22.34 1.2-24.51ZM68.09-17.36L68.09-17.36Q68.09-14.87 67.44-12.56 66.79-10.25 65.62-8.24 64.45-6.23 62.79-4.57 61.13-2.91 59.13-1.72 57.13-0.54 54.81 0.11 52.49 0.76 50 0.76L50 0.76Q47.51 0.76 45.2 0.11 42.89-0.54 40.88-1.72 38.86-2.91 37.2-4.57 35.54-6.23 34.36-8.24 33.18-10.25 32.53-12.56 31.88-14.87 31.88-17.36L31.88-17.36Q31.88-19.85 32.53-22.17 33.18-24.49 34.36-26.49 35.54-28.49 37.2-30.15 38.86-31.81 40.88-32.98 42.89-34.16 45.2-34.8 47.51-35.45 50-35.45L50-35.45Q52.49-35.45 54.81-34.8 57.13-34.16 59.13-32.98 61.13-31.81 62.79-30.15 64.45-28.49 65.62-26.49 66.79-24.49 67.44-22.17 68.09-19.85 68.09-17.36ZM61.13-17.36L61.13-17.36Q61.13-19.65 60.25-21.69 59.37-23.73 57.87-25.23 56.37-26.73 54.33-27.61 52.29-28.49 50-28.49L50-28.49Q47.68-28.49 45.65-27.61 43.63-26.73 42.11-25.23 40.6-23.73 39.72-21.69 38.84-19.65 38.84-17.36L38.84-17.36Q38.84-15.06 39.72-13.05 40.6-11.04 42.11-9.52 43.63-8.01 45.65-7.13 47.68-6.25 50-6.25L50-6.25Q52.29-6.25 54.33-7.13 56.37-8.01 57.87-9.52 59.37-11.04 60.25-13.05 61.13-15.06 61.13-17.36ZM96.92-9.69L100.63-3.59Q98.19-1.49 95.16-0.37 92.13 0.76 88.89 0.76L88.89 0.76Q86.4 0.76 84.09 0.11 81.78-0.54 79.77-1.72 77.75-2.91 76.09-4.57 74.43-6.23 73.25-8.24 72.07-10.25 71.42-12.56 70.77-14.87 70.77-17.36L70.77-17.36Q70.77-19.85 71.42-22.17 72.07-24.49 73.25-26.5 74.43-28.52 76.09-30.18 77.75-31.84 79.77-33.02 81.78-34.2 84.09-34.85 86.4-35.5 88.89-35.5L88.89-35.5Q92.13-35.5 95.16-34.39 98.19-33.28 100.63-31.15L100.63-31.15 96.92-25.05Q95.38-26.71 93.28-27.6 91.18-28.49 88.89-28.49L88.89-28.49Q86.57-28.49 84.54-27.61 82.51-26.73 81-25.23 79.49-23.73 78.61-21.69 77.73-19.65 77.73-17.36L77.73-17.36Q77.73-15.06 78.61-13.05 79.49-11.04 81-9.52 82.51-8.01 84.54-7.13 86.57-6.25 88.89-6.25L88.89-6.25Q91.18-6.25 93.28-7.14 95.38-8.03 96.92-9.69L96.92-9.69ZM111.69-35.01L111.69 0 104.68 0 104.68-35.01 111.69-35.01ZM124.77-13.99L138.78-13.99 138.78-21Q138.78-22.44 138.23-23.72 137.69-25 136.73-25.95 135.78-26.9 134.5-27.45 133.22-28 131.78-28L131.78-28Q130.34-28 129.05-27.45 127.77-26.9 126.82-25.95 125.87-25 125.32-23.72 124.77-22.44 124.77-21L124.77-21 124.77-13.99ZM145.79-21L145.79 0 138.78 0 138.78-7.01 124.77-7.01 124.77 0 117.79 0 117.79-21Q117.79-23.9 118.89-26.45 119.99-29 121.88-30.91 123.77-32.81 126.32-33.91 128.87-35.01 131.78-35.01L131.78-35.01Q134.68-35.01 137.23-33.91 139.78-32.81 141.69-30.91 143.59-29 144.69-26.45 145.79-23.9 145.79-21L145.79-21ZM176.38-7.01L176.38 0 151.87 0 151.87-35.01 158.87-35.01 158.87-7.01 176.38-7.01ZM187.02-35.01L187.02 0 180.01 0 180.01-35.01 187.02-35.01ZM221.52-35.01L221.52 0 214.02 0 200.52-23.05 200.52 0 193.51 0 193.51-35.01 201.01-35.01 214.51-11.94 214.51-35.01 221.52-35.01ZM235.01-7.01L235.01 0 228.01 0 228.01-35.01 235.01-35.01 235.01-17.5 248.05-35.01 256.01-35.01 244.95-20.24 256.01 0 248.05 0 240.36-14.16 235.01-7.01Z" fill="#ffffff" data-fill-palette-color="primary"></path></g></svg></g></svg></g></svg></g></svg></g><g><svg viewBox="0 0 90.75800352733938 77.76526445679248" height="77.76526445679248" width="90.75800352733938"><g><svg xmlns="http://www.w3.org/2000/svg" xmlns:xlink="http://www.w3.org/1999/xlink" version="1.1" x="8" y="0" viewBox="2.8000011444091797 0.8995532393455505 94.5 98.3014144897461" style="enable-background:new 0 0 100 100;" xml:space="preserve" height="77.76526445679248" width="74.75800352733938" class="icon-icon-0" data-fill-palette-color="accent" id="icon-0"><path d="M85.6 88.6c5.4-5.8 8.6-13.6 8.6-22.2 0-8.9-3.6-17-9.4-22.8-2.5 20.9-20.5 37.1-42.3 37l-10.5 0c5.3 11.1 16.5 18.7 29.6 18.6L97.3 99 85.6 88.6z" fill="#ffffff" data-fill-palette-color="accent"></path><path d="M43.8 0.9C23.1 0.8 6.3 17.5 6.3 38.2c0 9.8 3.7 18.7 9.9 25.4l-13.4 12 40.8 0.1c20.7 0.1 37.5-16.7 37.5-37.3C81.2 17.7 64.5 0.9 43.8 0.9zM33.4 49.8h-6.2V33.1h6.2V49.8zM57 49.8H36.5V33l9.3-10.2 4 0.7L47 32.2h13.9L57 49.8z" fill="#ffffff" data-fill-palette-color="accent"></path></svg></g></svg></g></svg></g><defs></defs></svg><rect width="395.52" height="61.569366937584846" fill="none" stroke="none" visibility="hidden"></rect></g></svg></g></svg>